<?xml version="1.0" encoding="iso-8859-1"?>
<!-- Uploaded to: SVG Repo, www.svgrepo.com, Generator: SVG Repo Mixer Tools -->
<svg fill="#000000" height="800px" width="800px" version="1.1" id="Layer_1" xmlns="http://www.w3.org/2000/svg" xmlns:xlink="http://www.w3.org/1999/xlink" 
	 viewBox="0 0 472.615 472.615" xml:space="preserve">
<g>
	<g>
		<path d="M382.128,277.457c-49.974,0-90.487,40.512-90.487,90.485c0,49.976,40.513,90.488,90.487,90.488
			c49.975,0,90.487-40.512,90.487-90.488C472.615,317.969,432.103,277.457,382.128,277.457z M437.618,377.794h-45.644v45.635
			h-19.692v-45.635h-45.644v-19.692h45.644v-45.644h19.692v45.644h45.644V377.794z"/>
	</g>
</g>
<g>
	<g>
		<circle cx="207.852" cy="112.292" r="98.107"/>
	</g>
</g>
<g>
	<g>
		<path d="M363.039,259.534c-11.396-12.799-24.24-24.285-38.456-33.948c-1.546-1.051-4.659-3.072-4.659-3.072
			c-25.079,34.817-65.966,57.529-112.061,57.529c-46.099,0-86.99-22.717-112.068-57.541c0,0-2.615,1.709-3.916,2.587
			C36.456,262.423,0,325.76,0,397.611v21.795h284.776c-8.161-15.378-12.831-32.879-12.831-51.469
			C271.946,313.707,311.366,268.613,363.039,259.534z"/>
	</g>
</g>
</svg>